# xmcd CD database file
#
# Track frame offsets:
#	150
#	13628
#	22915
#	35069
#	45164
#	53117
#	66931
#	73618
#	80543
#	87156
#	93049
#	119439
#	128157
#	133246
#	154303
#	159266
#	169370
#	175993
#	182667
#	195822
#	206043
#	216536
#	224925
#	234172
#	245682
#
# Disc length: 3432 seconds
#
# Revision: 5
# Processed by: cddbd v1.5.2PL0 Copyright (c) Steve Scherf et al.
# Submitted via: CDex 1.51
#
DISCID=640d6619
DTITLE=Antonio Salieri - Lieder, trois marches pour pianoforte  (Krisztina Laki, soprano - Gàbor Kòsa, pianoforte)
DYEAR=1900
DGENRE=Classique
TTITLE0=Bei labbri
TTITLE1=Tornate sereni
TTITLE2=Caro, son tua cosi
TTITLE3=Ombre amen
TTITLE4=Marcia per clavicembalo dell' opera Palmira
TTITLE5=An die zukünftige Geliebte
TTITLE6=Wie ist mir
TTITLE7=Der Zufriedene
TTITLE8=Maylied
TTITLE9=Marcia per clavicembalo
TTITLE10=Ode
TTITLE11=La grotta di Trofonio, Aria de Efelia
TTITLE12=Marcia per clavicembalo
TTITLE13=Quand de Vienne je m'éloignois
TTITLE14=Il est un mal
TTITLE15=Ce que je désire
TTITLE16=Marcia
TTITLE17=In questa tomba oscura
TTITLE18=In questa tomba oscura
TTITLE19=Gia la notte s'avvincina
TTITLE20=Conservati fedele
TTITLE21=Hà negl'occhi un certo incato
TTITLE22=Oh que felici pianti
TTITLE23=Ch'io mai vi possa
TTITLE24=Abbiam penato, è ver
EXTD=
EXTT0=
EXTT1=
EXTT2=
EXTT3=
EXTT4=
EXTT5=
EXTT6=
EXTT7=
EXTT8=
EXTT9=
EXTT10=
EXTT11=
EXTT12=
EXTT13=
EXTT14=
EXTT15=
EXTT16=
EXTT17=
EXTT18=
EXTT19=
EXTT20=
EXTT21=
EXTT22=
EXTT23=
EXTT24=
PLAYORDER=
